HIERARCHY
ROOT Hips
{
	OFFSET 0.000000 97.167313 0.000000
	CHANNELS 6 Xposition Yposition Zposition Xrotation Yrotation Zrotation
	JOINT Spine
	{
		OFFSET 0.000000 13.784798 0.064400
		CHANNELS 3 Xrotation Yrotation Zrotation
		JOINT Spine1
		{
			OFFSET 0.000000 12.037903 0.404700
			CHANNELS 3 Xrotation Yrotation Zrotation
			JOINT Spine2
			{
				OFFSET 0.000000 17.795601 0.420200
				CHANNELS 3 Xrotation Yrotation Zrotation
				JOINT Neck
				{
					OFFSET 0.000000 39.131302 11.954600
					CHANNELS 3 Xrotation Yrotation Zrotation
					JOINT Head
					{
						OFFSET 0.000000 14.456192 15.627699
						CHANNELS 3 Xrotation Yrotation Zrotation
						JOINT HeadTop_End
						{
							OFFSET 0.000000 15.703506 7.603401
							CHANNELS 3 Xrotation Yrotation Zrotation
							End Site
							{
								OFFSET 0.000000 17.447403 0.000000
							}
						}
					}
				}
				JOINT LeftShoulder
				{
					OFFSET 17.399500 24.608795 1.168800
					CHANNELS 3 Xrotation Yrotation Zrotation
					JOINT LeftArm
					{
						OFFSET 18.980635 5.765305 1.818600
						CHANNELS 3 Xrotation Yrotation Zrotation
						JOINT LeftForeArm
						{
							OFFSET 49.290169 0.000000 0.000000
							CHANNELS 3 Xrotation Yrotation Zrotation
							JOINT LeftHand
							{
								OFFSET 31.562012 0.000000 0.000000
								CHANNELS 3 Xrotation Yrotation Zrotation
								JOINT LeftHandThumb1
								{
									OFFSET 6.133995 -4.388519 7.076070
									CHANNELS 3 Xrotation Yrotation Zrotation
									JOINT LeftHandThumb2
									{
										OFFSET 6.037666 -3.485840 3.485847
										CHANNELS 3 Xrotation Yrotation Zrotation
										JOINT LeftHandThumb3
										{
											OFFSET 6.496506 -3.750763 3.750761
											CHANNELS 3 Xrotation Yrotation Zrotation
											JOINT LeftHandThumb4
											{
												OFFSET 5.616882 -3.242905 3.242910
												CHANNELS 3 Xrotation Yrotation Zrotation
												End Site
												{
													OFFSET -1.254608 7.132141 0.375429
												}
											}
										}
									}
								}
								JOINT LeftHandPinky1
								{
									OFFSET 18.920792 -0.453171 -11.426712
									CHANNELS 3 Xrotation Yrotation Zrotation
									JOINT LeftHandPinky2
									{
										OFFSET 4.919586 0.000000 0.000000
										CHANNELS 3 Xrotation Yrotation Zrotation
										JOINT LeftHandPinky3
										{
											OFFSET 5.233047 0.000000 0.000000
											CHANNELS 3 Xrotation Yrotation Zrotation
											JOINT LeftHandPinky4
											{
												OFFSET 5.571716 0.000000 0.000000
												CHANNELS 3 Xrotation Yrotation Zrotation
												End Site
												{
													OFFSET -3.459808 4.342407 -0.466164
												}
											}
										}
									}
								}
								JOINT LeftHandRing1
								{
									OFFSET 22.726120 -0.094986 -6.500475
									CHANNELS 3 Xrotation Yrotation Zrotation
									JOINT LeftHandRing2
									{
										OFFSET 6.408615 0.000000 0.000000
										CHANNELS 3 Xrotation Yrotation Zrotation
										JOINT LeftHandRing3
										{
											OFFSET 6.150223 0.000000 0.000000
											CHANNELS 3 Xrotation Yrotation Zrotation
											JOINT LeftHandRing4
											{
												OFFSET 6.145386 0.000000 0.000000
												CHANNELS 3 Xrotation Yrotation Zrotation
												End Site
												{
													OFFSET -3.671402 4.923981 -0.202372
												}
											}
										}
									}
								}
								JOINT LeftHandMiddle1
								{
									OFFSET 23.373947 0.000000 0.000001
									CHANNELS 3 Xrotation Yrotation Zrotation
									JOINT LeftHandMiddle2
									{
										OFFSET 6.996567 0.000000 0.000000
										CHANNELS 3 Xrotation Yrotation Zrotation
										JOINT LeftHandMiddle3
										{
											OFFSET 7.015945 0.000000 0.000000
											CHANNELS 3 Xrotation Yrotation Zrotation
											JOINT LeftHandMiddle4
											{
												OFFSET 7.721573 0.000000 0.000000
												CHANNELS 3 Xrotation Yrotation Zrotation
												End Site
												{
													OFFSET -4.651108 6.158463 0.251582
												}
											}
										}
									}
								}
								JOINT LeftHandIndex1
								{
									OFFSET 21.310577 -0.490082 6.209344
									CHANNELS 3 Xrotation Yrotation Zrotation
									JOINT LeftHandIndex2
									{
										OFFSET 7.536453 0.000000 0.000000
										CHANNELS 3 Xrotation Yrotation Zrotation
										JOINT LeftHandIndex3
										{
											OFFSET 7.512344 0.000000 0.000000
											CHANNELS 3 Xrotation Yrotation Zrotation
											JOINT LeftHandIndex4
											{
												OFFSET 10.212402 0.000000 0.000001
												CHANNELS 3 Xrotation Yrotation Zrotation
												End Site
												{
													OFFSET -5.180801 8.690506 1.388433
												}
											}
										}
									}
								}
							}
						}
					}
				}
				JOINT RightShoulder
				{
					OFFSET -17.399500 24.608795 1.168800
					CHANNELS 3 Xrotation Yrotation Zrotation
					JOINT RightArm
					{
						OFFSET -18.980635 5.765305 1.818600
						CHANNELS 3 Xrotation Yrotation Zrotation
						JOINT RightForeArm
						{
							OFFSET -49.290169 0.000000 0.000000
							CHANNELS 3 Xrotation Yrotation Zrotation
							JOINT RightHand
							{
								OFFSET -31.562012 0.000000 0.000000
								CHANNELS 3 Xrotation Yrotation Zrotation
								JOINT RightHandThumb1
								{
									OFFSET -6.133995 -4.388519 7.076070
									CHANNELS 3 Xrotation Yrotation Zrotation
									JOINT RightHandThumb2
									{
										OFFSET -6.037666 -3.485840 3.485847
										CHANNELS 3 Xrotation Yrotation Zrotation
										JOINT RightHandThumb3
										{
											OFFSET -6.496506 -3.750763 3.750761
											CHANNELS 3 Xrotation Yrotation Zrotation
											JOINT RightHandThumb4
											{
												OFFSET -5.616882 -3.242905 3.242910
												CHANNELS 3 Xrotation Yrotation Zrotation
												End Site
												{
													OFFSET 1.254608 7.132141 0.375429
												}
											}
										}
									}
								}
								JOINT RightHandIndex1
								{
									OFFSET -21.310577 -0.490082 6.209344
									CHANNELS 3 Xrotation Yrotation Zrotation
									JOINT RightHandIndex2
									{
										OFFSET -7.536453 0.000000 0.000000
										CHANNELS 3 Xrotation Yrotation Zrotation
										JOINT RightHandIndex3
										{
											OFFSET -7.512344 0.000000 0.000000
											CHANNELS 3 Xrotation Yrotation Zrotation
											JOINT RightHandIndex4
											{
												OFFSET -10.212402 0.000000 0.000001
												CHANNELS 3 Xrotation Yrotation Zrotation
												End Site
												{
													OFFSET 5.180801 8.690506 1.388433
												}
											}
										}
									}
								}
								JOINT RightHandMiddle1
								{
									OFFSET -23.373947 0.000000 0.000001
									CHANNELS 3 Xrotation Yrotation Zrotation
									JOINT RightHandMiddle2
									{
										OFFSET -6.996567 0.000000 0.000000
										CHANNELS 3 Xrotation Yrotation Zrotation
										JOINT RightHandMiddle3
										{
											OFFSET -7.015945 0.000000 0.000000
											CHANNELS 3 Xrotation Yrotation Zrotation
											JOINT RightHandMiddle4
											{
												OFFSET -7.721573 0.000000 0.000000
												CHANNELS 3 Xrotation Yrotation Zrotation
												End Site
												{
													OFFSET 4.651108 6.158463 0.251582
												}
											}
										}
									}
								}
								JOINT RightHandRing1
								{
									OFFSET -22.726120 -0.094986 -6.500475
									CHANNELS 3 Xrotation Yrotation Zrotation
									JOINT RightHandRing2
									{
										OFFSET -6.408615 0.000000 0.000000
										CHANNELS 3 Xrotation Yrotation Zrotation
										JOINT RightHandRing3
										{
											OFFSET -6.150223 0.000000 0.000000
											CHANNELS 3 Xrotation Yrotation Zrotation
											JOINT RightHandRing4
											{
												OFFSET -6.145386 0.000000 0.000000
												CHANNELS 3 Xrotation Yrotation Zrotation
												End Site
												{
													OFFSET 3.671402 4.923981 -0.202372
												}
											}
										}
									}
								}
								JOINT RightHandPinky1
								{
									OFFSET -18.920792 -0.453171 -11.426712
									CHANNELS 3 Xrotation Yrotation Zrotation
									JOINT RightHandPinky2
									{
										OFFSET -4.919586 0.000000 0.000000
										CHANNELS 3 Xrotation Yrotation Zrotation
										JOINT RightHandPinky3
										{
											OFFSET -5.233047 0.000000 0.000000
											CHANNELS 3 Xrotation Yrotation Zrotation
											JOINT RightHandPinky4
											{
												OFFSET -5.571716 0.000000 0.000000
												CHANNELS 3 Xrotation Yrotation Zrotation
												End Site
												{
													OFFSET 3.459808 4.342407 -0.466164
												}
											}
										}
									}
								}
							}
						}
					}
				}
			}
		}
	}
	JOINT LeftUpLeg
	{
		OFFSET 19.899099 -7.885101 -3.429500
		CHANNELS 3 Xrotation Yrotation Zrotation
		JOINT LeftLeg
		{
			OFFSET 1.745560 -36.997807 10.304700
			CHANNELS 3 Xrotation Yrotation Zrotation
			JOINT LeftFoot
			{
				OFFSET -1.745558 -29.803308 -13.615400
				CHANNELS 3 Xrotation Yrotation Zrotation
				JOINT LeftToeBase
				{
					OFFSET 1.181900 -18.539904 15.226099
					CHANNELS 3 Xrotation Yrotation Zrotation
					JOINT LeftToe_End
					{
						OFFSET -0.863701 1.402801 16.534700
						CHANNELS 3 Xrotation Yrotation Zrotation
						End Site
						{
							OFFSET 0.000000 16.616566 0.000000
						}
					}
				}
			}
		}
	}
	JOINT RightUpLeg
	{
		OFFSET -19.899099 -7.885101 -3.429500
		CHANNELS 3 Xrotation Yrotation Zrotation
		JOINT RightLeg
		{
			OFFSET -1.745560 -36.997807 10.304700
			CHANNELS 3 Xrotation Yrotation Zrotation
			JOINT RightFoot
			{
				OFFSET 1.745558 -29.803308 -13.615400
				CHANNELS 3 Xrotation Yrotation Zrotation
				JOINT RightToeBase
				{
					OFFSET -1.181900 -18.539904 15.226099
					CHANNELS 3 Xrotation Yrotation Zrotation
					JOINT RightToe_End
					{
						OFFSET 0.863701 1.402801 16.534700
						CHANNELS 3 Xrotation Yrotation Zrotation
						End Site
						{
							OFFSET 0.000000 16.616566 0.000000
						}
					}
				}
			}
		}
	}
}
MOTION
Frames: 4
Frame Time: 0.033333
6.429833 35.103104 3.047367 41.717713 6.662014 -0.331866 7.183899 0.043014 -0.061028 14.371087 0.120364 -1.693478 14.371039 0.120361 -1.693479 -10.979958 -2.556186 -1.637086 -40.055784 -9.124881 2.748276 -0.000002 -0.000000 -0.000000 -1.160738 -0.888210 -9.004979 -19.826434 -41.607860 -35.287052 15.280486 -83.644867 11.420280 60.975851 3.232905 9.448102 13.368524 -4.171494 12.304313 8.359032 29.964480 3.723354 0.000008 -0.000001 -0.000001 -0.000001 0.000003 0.000000 -2.299103 32.611947 -35.094086 2.548922 -5.056026 -52.978564 0.000012 -0.000010 0.000001 -0.000001 0.000000 -0.000002 1.182350 11.791207 -28.169638 1.773578 -1.892681 -47.445783 -0.000003 0.000012 -0.000002 -0.000000 0.000002 -0.000000 1.555096 -0.270078 -13.585373 -1.026937 -0.998469 -42.457651 -0.000005 0.000005 0.000005 -0.000003 -0.000002 0.000004 6.115462 -8.482426 -6.021008 -0.250986 0.593723 -37.880134 -0.000002 -0.000003 -0.000013 0.000003 0.000003 0.000001 6.856302 27.651662 18.955247 -38.868943 24.141266 20.801794 1.710787 45.043499 -1.659251 44.477403 -13.349057 -67.892381 -34.809444 16.146671 -4.850148 -1.180507 -0.461908 -0.736101 0.000004 0.000000 0.000003 0.000002 0.000000 0.000001 -1.612303 9.426227 -0.242161 0.226456 -1.544014 12.511792 -0.000002 -0.000001 0.000010 -0.000000 -0.000002 0.000001 -0.888487 -1.396127 2.722451 -0.830639 0.650529 17.794637 -0.000001 -0.000001 -0.000006 0.000001 0.000000 -0.000004 1.780866 -13.838061 7.038276 0.043506 2.459872 19.081426 -0.000002 -0.000003 -0.000004 0.000000 0.000001 -0.000003 6.822722 -32.573626 14.489536 -0.566936 6.647219 21.331762 0.000007 0.000001 -0.000005 -0.000002 0.000003 -0.000001 -63.509373 -3.784255 72.856364 109.373711 -37.540338 -26.450785 -43.466829 -36.015338 -8.486461 -31.630958 -0.691947 -1.762779 -0.000001 0.000001 -0.000000 -87.536907 -23.535184 -44.981136 136.561559 22.404759 10.601416 -49.715731 36.118850 -38.562497 -35.296020 0.455248 -1.493076 0.000001 -0.000000 -0.000000 
6.423447 35.103622 3.051792 41.729358 6.653232 -0.317875 7.190028 0.040177 -0.055345 14.383164 0.116568 -1.684206 14.383144 0.116568 -1.684207 -11.013840 -2.573453 -1.608694 -40.018324 -9.141083 2.748486 -0.000002 0.000000 0.000000 -1.159360 -0.901387 -8.998098 -19.794112 -41.605681 -35.262170 15.178668 -83.549101 11.312012 60.991882 3.132392 9.369060 13.405590 -4.118895 12.248719 8.486452 30.008064 3.626790 0.000008 -0.000002 -0.000003 -0.000001 -0.000000 0.000000 -2.271555 32.631861 -35.160875 2.561557 -5.049272 -53.021662 0.000011 -0.000008 -0.000003 -0.000000 -0.000001 -0.000004 1.168688 11.761220 -28.276725 1.752099 -1.913079 -47.555346 0.000002 0.000011 -0.000001 0.000001 -0.000001 0.000001 1.537302 -0.332999 -13.742146 -1.074073 -1.047731 -42.615384 -0.000005 0.000004 0.000002 0.000000 0.000001 0.000001 6.097777 -8.555706 -6.154426 -0.307618 0.528752 -38.002548 0.000002 -0.000006 -0.000015 -0.000001 0.000006 -0.000004 6.858642 27.622998 18.941107 -38.897606 24.124477 20.842037 1.756271 45.196089 -1.705971 44.533568 -13.410716 -67.812727 -34.809438 16.146671 -4.850151 -1.186682 -0.482147 -0.736461 0.000004 0.000002 0.000006 -0.000001 -0.000003 0.000002 -1.607586 9.411959 -0.264556 0.226923 -1.545379 12.500430 -0.000002 0.000001 0.000010 -0.000001 0.000000 -0.000001 -0.890092 -1.387026 2.747014 -0.830559 0.650286 17.790013 -0.000002 -0.000003 -0.000009 0.000000 0.000001 -0.000002 1.777408 -13.831794 7.043254 0.043426 2.460044 19.083596 -0.000004 -0.000003 -0.000002 -0.000001 -0.000001 -0.000003 6.814286 -32.569224 14.481400 -0.562305 6.647231 21.310441 0.000007 -0.000002 0.000002 -0.000000 -0.000000 0.000002 -63.490659 -3.766066 72.845682 109.360133 -37.533010 -26.447493 -43.500823 -36.002026 -8.523237 -31.638345 -0.691702 -1.762400 -0.000000 -0.000004 -0.000000 -87.414926 -23.404224 -44.915522 136.544716 22.465126 10.635830 -49.808864 36.097355 -38.440376 -35.268768 0.454547 -1.491946 0.000000 0.000000 -0.000000 
6.416411 35.104790 3.056652 41.744258 6.647579 -0.298495 7.189738 0.033610 -0.048760 14.382307 0.104585 -1.673455 14.382309 0.104588 -1.673457 -11.049814 -2.593738 -1.574776 -39.991027 -9.145496 2.732523 0.000001 -0.000000 0.000000 -1.157496 -0.915095 -8.988742 -19.746625 -41.585719 -35.235986 14.972058 -83.415441 11.097430 61.005768 3.057715 9.315546 13.438110 -4.088156 12.190538 8.556298 30.034920 3.534124 0.000007 -0.000000 -0.000003 -0.000002 -0.000000 -0.000002 -2.261548 32.635255 -35.194356 2.566889 -5.047132 -53.046449 0.000012 -0.000011 -0.000004 -0.000000 0.000001 -0.000004 1.150715 11.722975 -28.420041 1.724620 -1.938496 -47.689552 0.000001 0.000012 0.000003 -0.000002 0.000001 0.000005 1.514906 -0.412279 -13.898940 -1.124816 -1.099652 -42.773131 -0.000003 0.000004 0.000002 -0.000001 -0.000002 0.000004 6.074243 -8.631846 -6.298540 -0.364615 0.464424 -38.111076 -0.000008 -0.000006 -0.000016 -0.000001 0.000003 0.000001 6.866989 27.592264 18.912135 -38.956906 24.155514 20.943119 1.818573 45.240800 -1.755056 44.602296 -13.446726 -67.766897 -34.809444 16.146670 -4.850149 -1.157799 -0.475693 -0.732311 0.000006 0.000002 0.000001 0.000002 -0.000001 -0.000000 -1.590968 9.402682 -0.332072 0.226911 -1.545205 12.472993 -0.000000 0.000003 0.000008 -0.000002 -0.000001 -0.000001 -0.890590 -1.384653 2.722163 -0.830484 0.650055 17.786323 -0.000002 -0.000002 -0.000004 0.000001 0.000000 -0.000004 1.773454 -13.823210 7.030239 0.043692 2.459275 19.076030 -0.000003 -0.000003 -0.000004 0.000001 -0.000000 -0.000005 6.795855 -32.569672 14.450863 -0.560720 6.644264 21.266506 0.000006 -0.000000 -0.000003 0.000000 -0.000001 0.000000 -63.473774 -3.745353 72.809618 109.348870 -37.517949 -26.435708 -43.549716 -35.973978 -8.567160 -31.653764 -0.691228 -1.761753 0.000000 0.000000 0.000000 -87.307153 -23.258867 -44.859122 136.525701 22.533156 10.674674 -49.885000 36.069768 -38.326633 -35.248486 0.454007 -1.491111 0.000000 0.000000 -0.000000 
6.408629 35.106819 3.061760 41.761491 6.644621 -0.273992 7.181104 0.026907 -0.036395 14.364776 0.092437 -1.651793 14.364783 0.092440 -1.651796 -11.087080 -2.617038 -1.534882 -39.982722 -9.142815 2.711334 -0.000001 -0.000000 -0.000000 -1.155888 -0.925699 -8.977530 -19.694181 -41.562121 -35.227640 14.574273 -83.244795 10.679099 61.000344 3.049887 9.381003 13.464559 -4.081656 12.129252 8.561183 30.036751 3.457405 0.000008 -0.000001 -0.000003 0.000002 0.000002 0.000001 -2.269563 32.624078 -35.220881 2.565473 -5.049094 -53.079272 0.000013 -0.000010 -0.000002 -0.000001 -0.000000 -0.000004 1.128464 11.680224 -28.578389 1.691769 -1.968583 -47.845161 -0.000001 0.000010 -0.000003 -0.000001 -0.000001 -0.000000 1.490050 -0.498541 -14.047818 -1.178569 -1.153348 -42.924495 -0.000005 0.000005 0.000005 0.000001 0.000001 0.000004 6.051697 -8.711747 -6.418408 -0.421411 0.401462 -38.202088 -0.000005 -0.000006 -0.000015 -0.000002 0.000003 0.000002 6.877835 27.568867 18.874873 -39.026130 24.208272 21.073300 1.904103 45.206604 -1.815664 44.691772 -13.472791 -67.733251 -34.809444 16.146670 -4.850150 -1.080699 -0.431675 -0.711657 0.000004 0.000001 0.000002 0.000001 0.000000 0.000001 -1.568362 9.398520 -0.410521 0.226650 -1.544245 12.448458 -0.000000 0.000001 0.000006 -0.000001 -0.000001 -0.000001 -0.888751 -1.392346 2.654785 -0.830452 0.649960 17.784614 -0.000001 -0.000003 -0.000009 0.000001 0.000000 -0.000004 1.770484 -13.815934 7.011047 0.043735 2.459196 19.075019 -0.000002 -0.000002 -0.000000 0.000000 -0.000001 -0.000003 6.773653 -32.576683 14.404316 -0.564208 6.640368 21.236281 0.000006 0.000002 0.000001 -0.000000 -0.000002 0.000002 -63.445381 -3.726774 72.752955 109.334506 -37.497629 -26.423908 -43.617820 -35.932454 -8.626725 -31.666509 -0.690842 -1.761166 0.000001 0.000002 0.000000 -87.224815 -23.114253 -44.807315 136.509117 22.592104 10.708393 -49.948084 36.033985 -38.222350 -35.240644 0.453811 -1.490793 -0.000000 0.000000 -0.000000 
